<?xml version="1.0" standalone="no"?><!DOCTYPE svg PUBLIC "-//W3C//DTD SVG 1.1//EN" "http://www.w3.org/Graphics/SVG/1.1/DTD/svg11.dtd"><svg t="1667265376572" class="icon" viewBox="0 0 1024 1024" version="1.1" xmlns="http://www.w3.org/2000/svg" p-id="4543" xmlns:xlink="http://www.w3.org/1999/xlink" width="16" height="16"><path d="M927.36 343.466667a32 32 0 0 1 31.424 38.08l-0.597333 2.410666c-1.621333 9.045333-4.330667 17.706667-8.192 25.365334 0 0.213333-50.965333 120.170667-178.944 201.066666l35.328 61.226667a32 32 0 1 1-55.424 32l-36.266667-62.869333c-48.213333 21.76-104.810667 37.205333-170.666667 41.002666L544 757.333333a32 32 0 0 1-64 0v-75.584c-65.877333-3.84-122.453333-19.285333-170.624-41.045333l-36.330667 62.933333a32 32 0 0 1-55.424-32l35.392-61.333333c-127.829333-80.917333-178.773333-201.002667-179.541333-202.837333a79.253333 79.253333 0 0 1-8.149333-25.173334l0.192 0.618667a32 32 0 0 1 62.293333-14.741333L128 368.085333c0.32 4.522667 1.216 8.554667 2.666667 11.264C136.149333 392.106667 234.453333 618.666667 512.064 618.666667c279.146667 0 379.306667-234.346667 380.224-236.693334 1.92-3.882667 3.072-8.832 3.498667-13.866666H896a32.426667 32.426667 0 0 1 31.36-24.64z" p-id="4544"></path></svg>